<?xml version="1.0" encoding="iso-8859-1"?>
<!-- Generator: Adobe Illustrator 19.0.0, SVG Export Plug-In . SVG Version: 6.00 Build 0)  -->
<svg version="1.1" id="Capa_1" xmlns="http://www.w3.org/2000/svg" xmlns:xlink="http://www.w3.org/1999/xlink" x="0px" y="0px"
	 viewBox="0 0 512.001 512.001" style="enable-background:new 0 0 512.001 512.001;" xml:space="preserve">
<g>
	<g>
		<path d="M440.378,62.253h-65.853V14.769c0-5.119-2.65-9.873-7.005-12.564c-4.355-2.69-9.789-2.935-14.369-0.647l-58.286,29.144
			c-7.834-6.222-17.73-9.951-28.488-9.951h-20.752c-10.758,0-20.654,3.73-28.488,9.951L158.85,1.559
			c-4.58-2.29-10.017-2.044-14.37,0.647c-4.355,2.691-7.005,7.445-7.005,12.564v47.484H71.623c-22.33,0-40.496,18.167-40.496,40.496
			v368.754c0,22.33,18.166,40.496,40.496,40.496h368.754c22.33,0,40.496-18.166,40.496-40.496V102.749
			C480.874,80.42,462.708,62.253,440.378,62.253z M384.016,129.373l10.352,95.763l-67.398,20.706L384.016,129.373z M312.194,64.058
			c-0.016-0.29-0.044-0.578-0.066-0.867c-0.042-0.564-0.09-1.127-0.152-1.686c-0.039-0.35-0.087-0.698-0.133-1.046
			c-0.066-0.491-0.14-0.98-0.222-1.466c-0.063-0.376-0.129-0.751-0.202-1.125c-0.088-0.45-0.185-0.895-0.286-1.34
			c-0.063-0.281-0.112-0.565-0.18-0.845l34.032-17.016v76.712l-34.032-17.016c0.069-0.281,0.117-0.566,0.181-0.848
			c0.1-0.444,0.198-0.888,0.286-1.336c0.073-0.374,0.139-0.75,0.202-1.127c0.082-0.485,0.155-0.974,0.222-1.464
			c0.047-0.349,0.095-0.696,0.133-1.047c0.062-0.558,0.109-1.122,0.152-1.686c0.022-0.289,0.05-0.578,0.066-0.868
			c0.048-0.858,0.078-1.719,0.078-2.588V66.647C312.272,65.777,312.243,64.916,312.194,64.058z M229.268,66.647
			c0-0.51,0.031-1.012,0.077-1.51c0.013-0.144,0.032-0.286,0.049-0.428c0.044-0.372,0.1-0.74,0.169-1.104
			c0.026-0.136,0.05-0.272,0.079-0.407c0.099-0.456,0.212-0.906,0.348-1.347c0.008-0.025,0.013-0.049,0.021-0.074
			c0.15-0.479,0.324-0.945,0.515-1.404c0.042-0.102,0.092-0.203,0.137-0.304c0.152-0.343,0.313-0.679,0.487-1.01
			c0.072-0.136,0.146-0.271,0.221-0.405c0.168-0.298,0.347-0.59,0.533-0.876c0.083-0.128,0.162-0.257,0.249-0.383
			c2.952-4.286,7.889-7.105,13.474-7.105h20.75v0.001c5.587,0,10.523,2.819,13.474,7.105c0.087,0.126,0.165,0.255,0.249,0.383
			c0.186,0.287,0.364,0.578,0.533,0.876c0.076,0.134,0.15,0.269,0.221,0.405c0.173,0.33,0.335,0.666,0.486,1.008
			c0.045,0.102,0.095,0.204,0.138,0.307c0.191,0.458,0.365,0.926,0.514,1.403c0.008,0.025,0.013,0.049,0.021,0.074
			c0.136,0.441,0.249,0.891,0.348,1.347c0.03,0.135,0.053,0.271,0.079,0.407c0.069,0.364,0.125,0.732,0.169,1.104
			c0.017,0.143,0.036,0.286,0.049,0.428c0.046,0.498,0.077,1,0.077,1.51v20.752c0,0.51-0.031,1.012-0.077,1.51
			c-0.013,0.144-0.032,0.286-0.049,0.429c-0.044,0.371-0.1,0.739-0.169,1.103c-0.026,0.136-0.05,0.273-0.079,0.408
			c-0.099,0.455-0.212,0.904-0.347,1.343c-0.008,0.026-0.013,0.051-0.021,0.077c-0.149,0.478-0.323,0.943-0.514,1.401
			c-0.043,0.105-0.094,0.208-0.14,0.311c-0.151,0.341-0.311,0.675-0.483,1.003c-0.072,0.137-0.147,0.274-0.223,0.409
			c-0.167,0.297-0.346,0.588-0.531,0.872c-0.083,0.128-0.162,0.258-0.25,0.384c-0.249,0.361-0.511,0.712-0.787,1.052
			c-0.072,0.089-0.148,0.174-0.223,0.261c-0.241,0.285-0.492,0.559-0.751,0.826c-0.074,0.077-0.146,0.156-0.222,0.23
			c-0.298,0.295-0.612,0.576-0.932,0.848c-0.12,0.101-0.242,0.201-0.364,0.299c-0.282,0.225-0.571,0.443-0.868,0.65
			c-0.161,0.112-0.326,0.219-0.49,0.325c-0.243,0.157-0.49,0.307-0.742,0.451c-0.167,0.096-0.335,0.192-0.505,0.283
			c-0.331,0.174-0.669,0.337-1.012,0.488c-0.182,0.081-0.367,0.154-0.551,0.227c-0.27,0.107-0.543,0.208-0.82,0.3
			c-0.124,0.042-0.246,0.089-0.371,0.128c-0.089,0.028-0.18,0.049-0.27,0.075c-0.33,0.096-0.665,0.183-1.003,0.259
			c-0.151,0.034-0.301,0.068-0.454,0.097c-0.431,0.084-0.866,0.152-1.309,0.201c-0.107,0.012-0.216,0.02-0.324,0.03
			c-0.487,0.043-0.978,0.075-1.476,0.075h-20.752c-0.498,0-0.989-0.031-1.476-0.075c-0.108-0.01-0.217-0.018-0.324-0.03
			c-0.442-0.048-0.878-0.117-1.309-0.201c-0.152-0.03-0.302-0.064-0.454-0.097c-0.339-0.076-0.672-0.162-1.002-0.258
			c-0.09-0.027-0.181-0.047-0.27-0.075c-0.125-0.038-0.247-0.086-0.37-0.128c-0.277-0.094-0.55-0.193-0.82-0.301
			c-0.184-0.074-0.369-0.147-0.55-0.227c-0.344-0.152-0.682-0.314-1.013-0.488c-0.17-0.09-0.338-0.186-0.505-0.283
			c-0.252-0.144-0.499-0.294-0.742-0.451c-0.164-0.106-0.329-0.213-0.49-0.325c-0.297-0.207-0.586-0.424-0.868-0.65
			c-0.123-0.098-0.245-0.198-0.365-0.299c-0.321-0.272-0.634-0.552-0.932-0.848c-0.076-0.075-0.147-0.155-0.221-0.23
			c-0.26-0.267-0.51-0.543-0.751-0.826c-0.074-0.088-0.15-0.172-0.223-0.261c-0.277-0.34-0.539-0.69-0.787-1.052
			c-0.087-0.126-0.166-0.256-0.25-0.384c-0.185-0.286-0.363-0.575-0.531-0.872c-0.077-0.135-0.151-0.272-0.223-0.409
			c-0.173-0.329-0.334-0.664-0.484-1.004c-0.045-0.103-0.095-0.205-0.139-0.309c-0.191-0.458-0.364-0.925-0.514-1.402
			c-0.008-0.026-0.014-0.051-0.021-0.077c-0.135-0.44-0.248-0.889-0.347-1.343c-0.029-0.135-0.053-0.272-0.079-0.408
			c-0.069-0.363-0.125-0.732-0.169-1.103c-0.017-0.143-0.036-0.286-0.049-0.429c-0.046-0.498-0.077-1-0.077-1.51V66.647z
			 M199.807,89.986c0.016,0.29,0.044,0.579,0.066,0.868c0.042,0.564,0.09,1.127,0.152,1.686c0.039,0.351,0.087,0.698,0.133,1.047
			c0.067,0.49,0.14,0.979,0.222,1.464c0.063,0.377,0.129,0.752,0.202,1.127c0.088,0.449,0.185,0.893,0.286,1.336
			c0.063,0.282,0.112,0.567,0.181,0.848l-34.032,17.016V38.667l34.031,17.016c-0.069,0.28-0.117,0.564-0.18,0.845
			c-0.1,0.445-0.199,0.89-0.286,1.34c-0.073,0.374-0.139,0.749-0.202,1.125c-0.082,0.486-0.156,0.975-0.222,1.466
			c-0.047,0.349-0.095,0.696-0.133,1.046c-0.062,0.558-0.109,1.121-0.152,1.686c-0.022,0.289-0.05,0.578-0.066,0.867
			c-0.048,0.858-0.078,1.719-0.078,2.589v20.752C199.73,88.268,199.759,89.129,199.807,89.986z M127.986,129.372l57.045,116.468
			l-67.398-20.706L127.986,129.372z M241.231,482.461H71.623c-6.042,0-10.958-4.915-10.958-10.958V102.749
			c0-6.043,4.915-10.958,10.958-10.958h30.714L86.955,234.085c-0.76,7.038,3.579,13.626,10.346,15.706l92.23,28.333l-48.526,69.122
			c-3.167,4.51-3.558,10.408-1.017,15.298c2.541,4.89,7.594,7.958,13.105,7.958h88.138V482.461z M211.133,298.763l21.015,42.201
			h-50.641L211.133,298.763z M169.726,147.048l47.393-23.697c0.267,0.212,0.543,0.412,0.814,0.617
			c0.131,0.099,0.261,0.2,0.393,0.298c0.409,0.302,0.824,0.596,1.242,0.884c0.18,0.125,0.357,0.253,0.54,0.375
			c0.344,0.23,0.694,0.449,1.045,0.671c1.25,0.792,2.54,1.523,3.868,2.193c0.069,0.034,0.137,0.071,0.206,0.105
			c0.517,0.258,1.041,0.503,1.569,0.741c0.063,0.029,0.125,0.057,0.188,0.085c0.544,0.243,1.095,0.476,1.65,0.698
			c0.028,0.011,0.056,0.022,0.084,0.033c2.809,1.118,5.752,1.963,8.799,2.51c0.186,0.034,0.372,0.069,0.558,0.1
			c0.43,0.072,0.864,0.136,1.298,0.195c0.299,0.041,0.6,0.08,0.901,0.115c0.368,0.043,0.737,0.085,1.108,0.118
			c0.41,0.038,0.821,0.067,1.233,0.094c0.286,0.019,0.569,0.041,0.857,0.055c0.717,0.034,1.435,0.055,2.155,0.055h20.752
			c0.721,0,1.44-0.021,2.155-0.055c0.286-0.014,0.571-0.036,0.857-0.055c0.412-0.028,0.823-0.056,1.233-0.094
			c0.37-0.034,0.739-0.076,1.108-0.118c0.301-0.035,0.602-0.074,0.901-0.115c0.434-0.059,0.867-0.123,1.298-0.195
			c0.187-0.031,0.373-0.067,0.559-0.1c3.047-0.545,5.99-1.392,8.799-2.51c0.028-0.011,0.056-0.022,0.084-0.033
			c0.555-0.223,1.106-0.455,1.65-0.698c0.063-0.028,0.125-0.057,0.188-0.085c0.528-0.238,1.052-0.483,1.568-0.741
			c0.069-0.034,0.137-0.071,0.207-0.105c1.327-0.669,2.617-1.402,3.867-2.193c0.35-0.221,0.7-0.44,1.045-0.671
			c0.182-0.122,0.359-0.25,0.54-0.375c0.418-0.288,0.833-0.582,1.242-0.884c0.132-0.098,0.262-0.199,0.393-0.298
			c0.272-0.206,0.546-0.406,0.814-0.618l47.393,23.697L256,322.294L169.726,147.048z M300.868,298.762l29.626,42.201h-50.641
			L300.868,298.762z M451.335,471.504c0,6.043-4.915,10.958-10.958,10.958H270.77v-111.96h88.14c5.511,0,10.564-3.068,13.105-7.958
			c2.541-4.89,2.149-10.787-1.017-15.298l-48.526-69.122l92.23-28.333c6.767-2.078,11.106-8.667,10.346-15.706L409.663,91.792
			h30.714c6.043,0,10.958,4.916,10.958,10.958V471.504z"/>
	</g>
</g>
<g>
	<g>
		<path d="M270.702,165.927c-0.049-0.473-0.128-0.955-0.217-1.428c-0.099-0.473-0.217-0.945-0.354-1.408
			c-0.147-0.453-0.305-0.916-0.492-1.359c-0.186-0.443-0.393-0.876-0.62-1.3c-0.225-0.433-0.472-0.847-0.738-1.25
			c-0.266-0.394-0.561-0.788-0.857-1.162c-0.314-0.374-0.639-0.738-0.975-1.083c-0.345-0.335-0.709-0.67-1.083-0.975
			s-0.768-0.591-1.162-0.857c-0.404-0.266-0.827-0.512-1.251-0.738c-0.423-0.226-0.857-0.433-1.299-0.62
			c-0.443-0.187-0.907-0.345-1.37-0.492c-0.453-0.138-0.925-0.256-1.398-0.354c-0.472-0.089-0.955-0.167-1.438-0.207
			c-0.955-0.098-1.94-0.098-2.905,0c-0.472,0.039-0.955,0.118-1.428,0.207c-0.472,0.098-0.945,0.217-1.398,0.354
			c-0.463,0.148-0.925,0.305-1.369,0.492c-0.444,0.187-0.876,0.394-1.3,0.62c-0.432,0.227-0.846,0.473-1.25,0.738
			c-0.394,0.266-0.788,0.551-1.162,0.857c-0.375,0.305-0.738,0.64-1.084,0.975c-0.335,0.345-0.669,0.709-0.975,1.083
			c-0.305,0.374-0.591,0.768-0.856,1.162c-0.267,0.404-0.513,0.817-0.738,1.25c-0.227,0.423-0.433,0.857-0.621,1.3
			c-0.186,0.443-0.345,0.906-0.492,1.359c-0.138,0.463-0.256,0.935-0.354,1.408c-0.089,0.473-0.167,0.955-0.218,1.428
			c-0.038,0.482-0.068,0.975-0.068,1.457c0,0.482,0.03,0.975,0.068,1.457c0.05,0.473,0.129,0.955,0.218,1.428
			c0.098,0.473,0.217,0.945,0.353,1.398c0.148,0.463,0.306,0.926,0.492,1.369c0.187,0.443,0.394,0.876,0.621,1.3
			c0.225,0.433,0.472,0.847,0.738,1.25c0.266,0.394,0.551,0.788,0.856,1.162c0.306,0.374,0.64,0.738,0.975,1.083
			c0.346,0.335,0.709,0.67,1.084,0.975c0.374,0.305,0.767,0.591,1.162,0.857c0.404,0.266,0.817,0.512,1.25,0.738
			c0.424,0.226,0.857,0.433,1.3,0.62c0.443,0.187,0.906,0.354,1.369,0.492c0.453,0.138,0.926,0.256,1.398,0.354
			c0.473,0.089,0.956,0.167,1.428,0.217c0.482,0.049,0.975,0.069,1.457,0.069c0.482,0,0.964-0.02,1.447-0.069
			c0.482-0.049,0.965-0.128,1.438-0.217c0.473-0.098,0.945-0.217,1.398-0.354c0.463-0.138,0.926-0.305,1.37-0.492
			c0.442-0.187,0.876-0.394,1.299-0.62c0.424-0.226,0.847-0.473,1.251-0.738c0.393-0.266,0.788-0.551,1.162-0.857
			s0.738-0.64,1.083-0.975c0.336-0.345,0.661-0.709,0.975-1.083c0.295-0.374,0.592-0.768,0.857-1.162
			c0.267-0.404,0.513-0.817,0.738-1.25c0.227-0.423,0.433-0.857,0.62-1.3c0.187-0.443,0.346-0.906,0.492-1.369
			c0.139-0.453,0.256-0.926,0.354-1.398c0.089-0.473,0.167-0.955,0.217-1.428c0.049-0.482,0.069-0.975,0.069-1.457
			C270.771,166.902,270.75,166.41,270.702,165.927z"/>
	</g>
</g>
<g>
	<g>
		<path d="M270.702,215.158c-0.049-0.473-0.128-0.955-0.217-1.428c-0.099-0.473-0.217-0.945-0.354-1.408
			c-0.147-0.453-0.305-0.916-0.492-1.359c-0.186-0.443-0.393-0.876-0.62-1.3c-0.225-0.433-0.472-0.847-0.738-1.25
			c-0.266-0.394-0.561-0.788-0.857-1.162c-0.314-0.374-0.639-0.738-0.975-1.083c-0.345-0.335-0.709-0.67-1.083-0.975
			s-0.768-0.591-1.162-0.857c-0.404-0.266-0.827-0.512-1.251-0.738c-0.423-0.226-0.857-0.433-1.299-0.62
			c-0.443-0.187-0.907-0.345-1.37-0.492c-0.453-0.138-0.925-0.256-1.398-0.354c-0.472-0.089-0.955-0.167-1.438-0.217
			c-0.955-0.089-1.94-0.089-2.905,0c-0.472,0.049-0.955,0.128-1.428,0.217c-0.472,0.098-0.945,0.217-1.398,0.354
			c-0.463,0.148-0.925,0.305-1.369,0.492c-0.444,0.187-0.876,0.394-1.3,0.62c-0.432,0.226-0.846,0.473-1.25,0.738
			c-0.394,0.266-0.788,0.551-1.162,0.857c-0.375,0.305-0.738,0.64-1.084,0.975c-0.335,0.345-0.669,0.709-0.975,1.083
			c-0.305,0.374-0.591,0.768-0.856,1.162c-0.267,0.404-0.513,0.817-0.738,1.25c-0.227,0.423-0.433,0.857-0.621,1.3
			c-0.186,0.443-0.345,0.906-0.492,1.359c-0.138,0.463-0.256,0.935-0.354,1.408c-0.089,0.473-0.167,0.955-0.218,1.428
			c-0.038,0.482-0.068,0.975-0.068,1.457c0,0.482,0.03,0.975,0.068,1.457c0.05,0.473,0.129,0.955,0.218,1.428
			c0.098,0.473,0.217,0.945,0.353,1.408c0.148,0.453,0.306,0.916,0.492,1.359c0.187,0.443,0.394,0.876,0.621,1.3
			c0.225,0.433,0.472,0.847,0.738,1.25c0.266,0.394,0.551,0.788,0.856,1.162c0.306,0.374,0.64,0.738,0.975,1.083
			c0.346,0.335,0.709,0.67,1.084,0.975c0.374,0.305,0.767,0.591,1.162,0.857c0.404,0.266,0.817,0.512,1.25,0.738
			c0.424,0.226,0.857,0.433,1.3,0.62c0.443,0.187,0.906,0.345,1.369,0.492c0.453,0.138,0.926,0.256,1.398,0.354
			c0.473,0.089,0.956,0.167,1.428,0.217c0.482,0.039,0.975,0.069,1.457,0.069c0.482,0,0.964-0.03,1.447-0.069
			c0.482-0.049,0.965-0.128,1.438-0.217c0.473-0.098,0.945-0.217,1.398-0.354c0.463-0.148,0.926-0.305,1.37-0.492
			c0.442-0.187,0.876-0.394,1.299-0.62c0.424-0.227,0.847-0.473,1.251-0.738c0.393-0.266,0.788-0.551,1.162-0.857
			s0.738-0.64,1.083-0.975c0.336-0.345,0.661-0.709,0.975-1.083c0.295-0.374,0.592-0.768,0.857-1.162
			c0.267-0.404,0.513-0.817,0.738-1.25c0.227-0.423,0.433-0.857,0.62-1.3c0.187-0.443,0.346-0.906,0.492-1.359
			c0.139-0.463,0.256-0.935,0.354-1.408c0.089-0.473,0.167-0.955,0.217-1.428c0.049-0.482,0.069-0.975,0.069-1.457
			C270.771,216.133,270.75,215.64,270.702,215.158z"/>
	</g>
</g>
<g>
</g>
<g>
</g>
<g>
</g>
<g>
</g>
<g>
</g>
<g>
</g>
<g>
</g>
<g>
</g>
<g>
</g>
<g>
</g>
<g>
</g>
<g>
</g>
<g>
</g>
<g>
</g>
<g>
</g>
</svg>
